<svg width="189" height="18" viewBox="0 0 189 18" fill="none" xmlns="http://www.w3.org/2000/svg">
<path d="M14.4775 7.733V10.2784H3.17249V15.0446H15.7204V17.6811H0V0.33597H15.602V2.97248H3.17249V7.73869H14.4775V7.733ZM83.6863 8.14869H91.0197C92.0792 8.14869 92.9138 7.91522 93.5293 7.45397C94.1449 6.99272 94.4527 6.36065 94.4527 5.55773C94.4527 4.73774 94.1449 4.10566 93.5293 3.65011C92.9138 3.19456 92.0733 2.96678 91.0197 2.96678H83.2306L84.6511 1.25277V17.6754H81.4786V0.330275H91.3098C92.5764 0.330275 93.6832 0.552357 94.6421 0.990826C95.595 1.42929 96.3408 2.0386 96.8794 2.81873C97.418 3.59886 97.6843 4.50997 97.6843 5.55773C97.6843 6.57703 97.418 7.47105 96.8794 8.25119C96.3408 9.03132 95.595 9.64062 94.6421 10.0791C93.6891 10.5176 92.5764 10.7396 91.3098 10.7396H83.6863V8.14869ZM68.1316 18C66.0778 18 64.2785 17.6242 62.7218 16.8668C61.1652 16.1095 59.9577 15.056 59.0936 13.7121C58.2294 12.3625 57.7974 10.7966 57.7974 9.00285C57.7974 7.21481 58.2294 5.64315 59.0936 4.29358C59.9577 2.94401 61.1711 1.89054 62.7218 1.13888C64.2785 0.381525 66.0778 0.0056944 68.1316 0.0056944C70.1855 0.0056944 71.9848 0.381525 73.5414 1.13888C75.0981 1.89624 76.3055 2.94401 77.1697 4.29358C77.3532 4.5783 77.5189 4.8801 77.6609 5.1819H74.0268C73.4763 4.4758 72.7602 3.91205 71.8901 3.49067C70.8247 2.98387 69.5699 2.72762 68.1257 2.72762C66.6815 2.72762 65.4267 2.98387 64.3613 3.49067C63.2959 3.99747 62.4673 4.72635 61.8873 5.66593C61.3013 6.6055 61.0113 7.71591 61.0113 8.99715C61.0113 10.2784 61.3072 11.3888 61.8873 12.3284C62.4732 13.268 63.2959 13.9911 64.3613 14.5036C65.4267 15.0104 66.6815 15.2667 68.1257 15.2667C69.5699 15.2667 70.8247 15.0104 71.8901 14.5036C72.9555 13.9968 73.7841 13.268 74.3642 12.3284C74.743 11.7134 75.0034 11.0301 75.1336 10.267H68.0428V7.72161H78.383C78.4363 8.1316 78.46 8.55868 78.46 8.99146C78.46 10.7795 78.0279 12.3512 77.1638 13.7007C76.2996 15.0503 75.0863 16.1038 73.5355 16.8554C71.9789 17.6128 70.1795 17.9886 68.1257 17.9886L68.1316 18ZM87.2435 9.5552H90.9724L98.1342 17.6754H94.3343L87.2435 9.5552ZM102.94 13.695V11.1724H115.536V13.695H102.94ZM111.309 0.324581L119.963 17.6697H116.571L108.711 1.48054H109.936L102.076 17.6697H98.6846L107.338 0.324581H111.309ZM131.7 0.324581C133.043 0.324581 134.209 0.558051 135.198 1.0193C136.186 1.48054 136.944 2.12401 137.483 2.9497C138.021 3.77539 138.287 4.72635 138.287 5.80829C138.287 6.89022 138.021 7.84119 137.483 8.66688C136.944 9.49257 136.186 10.136 135.198 10.5973C134.209 11.0585 133.049 11.292 131.7 11.292H123.597V8.65549H131.581C132.671 8.65549 133.523 8.39924 134.144 7.89244C134.76 7.38564 135.068 6.69092 135.068 5.80829C135.068 4.93135 134.76 4.23663 134.144 3.72414C133.529 3.21734 132.671 2.96109 131.581 2.96109H123.911L125.331 1.43499V17.6697H122.159V0.324581H131.706H131.7ZM140.886 0.324581H144.058V17.6697H140.886V0.324581ZM155.553 0.324581H158.725V17.6697H155.553V0.324581ZM142.596 7.58494H157.068V10.267H142.596V7.58494ZM162.768 0.324581H165.94V17.6697H162.768V0.324581ZM189 10.8023C188.84 12.2202 188.325 13.473 187.449 14.5606C186.573 15.6482 185.437 16.491 184.022 17.0946C182.614 17.6982 181.004 17.9943 179.193 17.9943C177.174 17.9943 175.404 17.6185 173.877 16.8611C172.356 16.1038 171.167 15.0503 170.32 13.7064C169.468 12.3568 169.048 10.7909 169.048 8.99715C169.048 7.20911 169.474 5.63746 170.32 4.28788C171.173 2.93831 172.356 1.88485 173.877 1.13319C175.399 0.37583 177.168 0 179.193 0C181.004 0 182.614 0.301803 184.022 0.899715C185.431 1.50332 186.573 2.3404 187.449 3.42233C188.325 4.50427 188.84 5.75704 189 7.19203H185.804C185.626 6.26384 185.247 5.47232 184.662 4.81177C184.076 4.15122 183.318 3.63872 182.389 3.27428C181.459 2.90984 180.382 2.72762 179.169 2.72762C177.76 2.72762 176.535 2.98387 175.505 3.49067C174.469 3.99747 173.676 4.72635 173.114 5.66593C172.552 6.6055 172.273 7.71591 172.273 8.99715C172.273 10.2784 172.552 11.3888 173.114 12.3284C173.676 13.268 174.469 13.9911 175.505 14.5036C176.541 15.0104 177.76 15.2667 179.169 15.2667C180.388 15.2667 181.459 15.0902 182.389 14.7371C183.318 14.3841 184.076 13.8716 184.662 13.1996C185.247 12.5277 185.626 11.7305 185.804 10.808H189V10.8023ZM21.2545 8.14299H28.5879C29.6474 8.14299 30.482 7.90952 31.0975 7.44828C31.7131 6.98703 32.0209 6.35495 32.0209 5.55204C32.0209 4.73205 31.7131 4.09997 31.0975 3.64442C30.482 3.18886 29.6415 2.96109 28.5879 2.96109H20.7988L22.2193 1.24707V17.6697H19.0468V0.324581H28.878C30.1446 0.324581 31.2514 0.546662 32.2103 0.985131C33.1632 1.4236 33.909 2.0329 34.4476 2.81303C34.9862 3.59317 35.2525 4.50427 35.2525 5.55204C35.2525 6.57134 34.9862 7.46536 34.4476 8.24549C33.909 9.02563 33.1632 9.63493 32.2103 10.0734C31.2573 10.5119 30.1446 10.7339 28.878 10.7339H21.2545V8.14299ZM24.8117 9.5552H28.5406L35.7024 17.6754H31.9025L24.8117 9.5552ZM40.5085 13.695V11.1724H53.1037V13.695H40.5085ZM48.8777 0.324581L57.531 17.6697H54.1395L46.2793 1.48054H47.5045L39.6443 17.6697H36.2528L44.9061 0.324581H48.8777Z" fill="white"/>
</svg>

